# xmcd
#
# Track frame offsets:
#	150
#	11787
#	28359
#	40237
#	53878
#	65575
#	79861
#	92346
#	110939
#	121781
#	135635
#	151902
#
# Disc length: 2237 seconds
# Revision: 0
# Processed by: cddbd v1.5.2PL0 Copyright (c) Steve Scherf et al.
# Submitted via: dBpowerAMP V12.0
#
DISCID=9f08bb0c
DTITLE=Connie Smith - Long Line of Heartaches
DYEAR=2011
DGENRE=Country
TTITLE0=Long Line of Heartaches
TTITLE1=I'm Not Blue
TTITLE2=Pain of a Broken Heart
TTITLE3=Ain't You Even Gonna Cry
TTITLE4=I Don't Believe That's How You Feel
TTITLE5=A Heart Like You
TTITLE6=Anymore
TTITLE7=That Makes Two of Us
TTITLE8=You and Me
TTITLE9=My Part of Forever
TTITLE10=Blue Heartaches
TTITLE11=Take My Hand
EXTD=
EXTT0=
EXTT1=
EXTT2=
EXTT3=
EXTT4=
EXTT5=
EXTT6=
EXTT7=
EXTT8=
EXTT9=
EXTT10=
EXTT11=
PLAYORDER=
